<mxfile host="app.diagrams.net" modified="2024-06-11T09:46:35.407Z" agent="Mozilla/5.0 (Windows NT 10.0; Win64; x64) AppleWebKit/537.36 (KHTML, like Gecko) Chrome/125.0.0.0 Safari/537.36 Edg/125.0.0.0" etag="Si3Qs5V_dvcAirBD-_FX" version="24.5.2" type="device">
  <diagram name="第 1 页" id="FMeCrq2CZje_D1tKwcc2">
    <mxGraphModel dx="4521" dy="775" grid="1" gridSize="10" guides="1" tooltips="1" connect="1" arrows="1" fold="1" page="1" pageScale="1" pageWidth="3300" pageHeight="4681" background="none" math="0" shadow="1">
      <root>
        <mxCell id="0" />
        <mxCell id="1" parent="0" />
        <mxCell id="AGG0iCRwYSTPVM0zgZUG-1" value="自动售卖机管理系统" style="ellipse;whiteSpace=wrap;html=1;labelBackgroundColor=none;fillColor=#B2C9AB;strokeColor=#788AA3;fontColor=#46495D;" parent="1" vertex="1">
          <mxGeometry x="1050" y="30" width="120" height="80" as="geometry" />
        </mxCell>
        <mxCell id="AGG0iCRwYSTPVM0zgZUG-2" value="首页&lt;div&gt;dw.html&lt;/div&gt;" style="rounded=1;whiteSpace=wrap;html=1;labelBackgroundColor=none;fillColor=#B2C9AB;strokeColor=#788AA3;fontColor=#46495D;" parent="1" vertex="1">
          <mxGeometry x="530" y="130" width="120" height="60" as="geometry" />
        </mxCell>
        <mxCell id="AGG0iCRwYSTPVM0zgZUG-3" value="管理员登录&lt;div&gt;adminlogin.php&lt;/div&gt;" style="rounded=1;whiteSpace=wrap;html=1;labelBackgroundColor=none;fillColor=#B2C9AB;strokeColor=#788AA3;fontColor=#46495D;" parent="1" vertex="1">
          <mxGeometry x="800" y="130" width="120" height="60" as="geometry" />
        </mxCell>
        <mxCell id="AGG0iCRwYSTPVM0zgZUG-4" value="用户登录&lt;div&gt;userlogin.php&lt;/div&gt;" style="rounded=1;whiteSpace=wrap;html=1;labelBackgroundColor=none;fillColor=#B2C9AB;strokeColor=#788AA3;fontColor=#46495D;" parent="1" vertex="1">
          <mxGeometry x="1110" y="130" width="120" height="60" as="geometry" />
        </mxCell>
        <mxCell id="AGG0iCRwYSTPVM0zgZUG-5" value="了解&lt;div&gt;about.php&lt;/div&gt;" style="rounded=1;whiteSpace=wrap;html=1;labelBackgroundColor=none;fillColor=#B2C9AB;strokeColor=#788AA3;fontColor=#46495D;" parent="1" vertex="1">
          <mxGeometry x="1360" y="130" width="120" height="60" as="geometry" />
        </mxCell>
        <mxCell id="AGG0iCRwYSTPVM0zgZUG-6" value="帮助&lt;div&gt;help.php&lt;/div&gt;" style="rounded=1;whiteSpace=wrap;html=1;labelBackgroundColor=none;fillColor=#B2C9AB;strokeColor=#788AA3;fontColor=#46495D;" parent="1" vertex="1">
          <mxGeometry x="1590" y="130" width="120" height="60" as="geometry" />
        </mxCell>
        <mxCell id="AGG0iCRwYSTPVM0zgZUG-7" value="" style="endArrow=none;html=1;rounded=0;labelBackgroundColor=none;strokeColor=#788AA3;fontColor=default;" parent="1" source="AGG0iCRwYSTPVM0zgZUG-1" target="AGG0iCRwYSTPVM0zgZUG-2" edge="1">
          <mxGeometry width="50" height="50" relative="1" as="geometry">
            <mxPoint x="1050" y="380" as="sourcePoint" />
            <mxPoint x="1100" y="330" as="targetPoint" />
          </mxGeometry>
        </mxCell>
        <mxCell id="AGG0iCRwYSTPVM0zgZUG-8" value="" style="endArrow=none;html=1;rounded=0;labelBackgroundColor=none;strokeColor=#788AA3;fontColor=default;" parent="1" source="AGG0iCRwYSTPVM0zgZUG-1" target="AGG0iCRwYSTPVM0zgZUG-3" edge="1">
          <mxGeometry width="50" height="50" relative="1" as="geometry">
            <mxPoint x="1050" y="380" as="sourcePoint" />
            <mxPoint x="1100" y="330" as="targetPoint" />
          </mxGeometry>
        </mxCell>
        <mxCell id="AGG0iCRwYSTPVM0zgZUG-9" value="" style="endArrow=none;html=1;rounded=0;labelBackgroundColor=none;strokeColor=#788AA3;fontColor=default;" parent="1" source="AGG0iCRwYSTPVM0zgZUG-1" target="AGG0iCRwYSTPVM0zgZUG-4" edge="1">
          <mxGeometry width="50" height="50" relative="1" as="geometry">
            <mxPoint x="1050" y="380" as="sourcePoint" />
            <mxPoint x="1100" y="330" as="targetPoint" />
          </mxGeometry>
        </mxCell>
        <mxCell id="AGG0iCRwYSTPVM0zgZUG-10" value="" style="endArrow=none;html=1;rounded=0;labelBackgroundColor=none;strokeColor=#788AA3;fontColor=default;" parent="1" source="AGG0iCRwYSTPVM0zgZUG-1" target="AGG0iCRwYSTPVM0zgZUG-5" edge="1">
          <mxGeometry width="50" height="50" relative="1" as="geometry">
            <mxPoint x="1050" y="380" as="sourcePoint" />
            <mxPoint x="1100" y="330" as="targetPoint" />
          </mxGeometry>
        </mxCell>
        <mxCell id="AGG0iCRwYSTPVM0zgZUG-11" value="" style="endArrow=none;html=1;rounded=0;labelBackgroundColor=none;strokeColor=#788AA3;fontColor=default;" parent="1" source="AGG0iCRwYSTPVM0zgZUG-1" target="AGG0iCRwYSTPVM0zgZUG-6" edge="1">
          <mxGeometry width="50" height="50" relative="1" as="geometry">
            <mxPoint x="1050" y="380" as="sourcePoint" />
            <mxPoint x="1100" y="330" as="targetPoint" />
          </mxGeometry>
        </mxCell>
        <mxCell id="AGG0iCRwYSTPVM0zgZUG-12" value="" style="endArrow=classic;html=1;rounded=0;entryX=1;entryY=0;entryDx=0;entryDy=0;labelBackgroundColor=none;strokeColor=#788AA3;fontColor=default;" parent="1" source="AGG0iCRwYSTPVM0zgZUG-3" target="AGG0iCRwYSTPVM0zgZUG-13" edge="1">
          <mxGeometry width="50" height="50" relative="1" as="geometry">
            <mxPoint x="1150" y="380" as="sourcePoint" />
            <mxPoint x="950" y="290" as="targetPoint" />
          </mxGeometry>
        </mxCell>
        <mxCell id="AGG0iCRwYSTPVM0zgZUG-13" value="管理员界面&lt;div&gt;adminview.html&lt;/div&gt;" style="rounded=1;whiteSpace=wrap;html=1;labelBackgroundColor=none;fillColor=#B2C9AB;strokeColor=#788AA3;fontColor=#46495D;" parent="1" vertex="1">
          <mxGeometry x="540" y="260" width="120" height="60" as="geometry" />
        </mxCell>
        <mxCell id="AGG0iCRwYSTPVM0zgZUG-14" value="输入账号密码&lt;div&gt;adminlogcheck.php&lt;/div&gt;" style="text;html=1;align=center;verticalAlign=middle;resizable=0;points=[];autosize=1;strokeColor=none;fillColor=none;labelBackgroundColor=none;fontColor=#46495D;" parent="1" vertex="1">
          <mxGeometry x="720" y="220" width="130" height="40" as="geometry" />
        </mxCell>
        <mxCell id="AGG0iCRwYSTPVM0zgZUG-15" value="用户界面&lt;div&gt;userview.php&lt;/div&gt;" style="rounded=1;whiteSpace=wrap;html=1;labelBackgroundColor=none;fillColor=#B2C9AB;strokeColor=#788AA3;fontColor=#46495D;" parent="1" vertex="1">
          <mxGeometry x="1240" y="260" width="120" height="60" as="geometry" />
        </mxCell>
        <mxCell id="AGG0iCRwYSTPVM0zgZUG-16" value="" style="endArrow=classic;html=1;rounded=0;labelBackgroundColor=none;strokeColor=#788AA3;fontColor=default;" parent="1" source="AGG0iCRwYSTPVM0zgZUG-4" target="AGG0iCRwYSTPVM0zgZUG-15" edge="1">
          <mxGeometry width="50" height="50" relative="1" as="geometry">
            <mxPoint x="1150" y="380" as="sourcePoint" />
            <mxPoint x="1200" y="330" as="targetPoint" />
          </mxGeometry>
        </mxCell>
        <mxCell id="AGG0iCRwYSTPVM0zgZUG-17" value="输入账号密码&lt;div&gt;userlogincheck.php&lt;/div&gt;" style="text;html=1;align=center;verticalAlign=middle;resizable=0;points=[];autosize=1;strokeColor=none;fillColor=none;labelBackgroundColor=none;fontColor=#46495D;" parent="1" vertex="1">
          <mxGeometry x="1115" y="213" width="130" height="40" as="geometry" />
        </mxCell>
        <mxCell id="AGG0iCRwYSTPVM0zgZUG-18" value="首页&lt;div&gt;userview.php&lt;/div&gt;" style="rounded=1;whiteSpace=wrap;html=1;labelBackgroundColor=none;fillColor=#B2C9AB;strokeColor=#788AA3;fontColor=#46495D;" parent="1" vertex="1">
          <mxGeometry x="1020" y="390" width="120" height="60" as="geometry" />
        </mxCell>
        <mxCell id="AGG0iCRwYSTPVM0zgZUG-19" value="购买饮料&lt;div&gt;buydrinks.php&lt;/div&gt;" style="rounded=1;whiteSpace=wrap;html=1;labelBackgroundColor=none;fillColor=#B2C9AB;strokeColor=#788AA3;fontColor=#46495D;" parent="1" vertex="1">
          <mxGeometry x="1220" y="390" width="120" height="60" as="geometry" />
        </mxCell>
        <mxCell id="AGG0iCRwYSTPVM0zgZUG-20" value="个人信息&lt;div&gt;personalmessage.php&lt;/div&gt;" style="rounded=1;whiteSpace=wrap;html=1;labelBackgroundColor=none;fillColor=#B2C9AB;strokeColor=#788AA3;fontColor=#46495D;" parent="1" vertex="1">
          <mxGeometry x="1430" y="390" width="120" height="60" as="geometry" />
        </mxCell>
        <mxCell id="AGG0iCRwYSTPVM0zgZUG-21" value="退出&lt;div&gt;logout.php&lt;/div&gt;" style="rounded=1;whiteSpace=wrap;html=1;labelBackgroundColor=none;fillColor=#B2C9AB;strokeColor=#788AA3;fontColor=#46495D;" parent="1" vertex="1">
          <mxGeometry x="1620" y="390" width="120" height="60" as="geometry" />
        </mxCell>
        <mxCell id="AGG0iCRwYSTPVM0zgZUG-22" value="" style="endArrow=classic;html=1;rounded=0;labelBackgroundColor=none;strokeColor=#788AA3;fontColor=default;" parent="1" source="AGG0iCRwYSTPVM0zgZUG-15" target="AGG0iCRwYSTPVM0zgZUG-18" edge="1">
          <mxGeometry width="50" height="50" relative="1" as="geometry">
            <mxPoint x="1150" y="380" as="sourcePoint" />
            <mxPoint x="1200" y="330" as="targetPoint" />
          </mxGeometry>
        </mxCell>
        <mxCell id="AGG0iCRwYSTPVM0zgZUG-23" value="" style="endArrow=classic;html=1;rounded=0;labelBackgroundColor=none;strokeColor=#788AA3;fontColor=default;" parent="1" source="AGG0iCRwYSTPVM0zgZUG-15" target="AGG0iCRwYSTPVM0zgZUG-19" edge="1">
          <mxGeometry width="50" height="50" relative="1" as="geometry">
            <mxPoint x="1150" y="380" as="sourcePoint" />
            <mxPoint x="1200" y="330" as="targetPoint" />
          </mxGeometry>
        </mxCell>
        <mxCell id="AGG0iCRwYSTPVM0zgZUG-24" value="" style="endArrow=classic;html=1;rounded=0;labelBackgroundColor=none;strokeColor=#788AA3;fontColor=default;" parent="1" source="AGG0iCRwYSTPVM0zgZUG-15" target="AGG0iCRwYSTPVM0zgZUG-20" edge="1">
          <mxGeometry width="50" height="50" relative="1" as="geometry">
            <mxPoint x="1150" y="380" as="sourcePoint" />
            <mxPoint x="1200" y="330" as="targetPoint" />
          </mxGeometry>
        </mxCell>
        <mxCell id="AGG0iCRwYSTPVM0zgZUG-26" value="Welcome&lt;div&gt;User Lin&lt;/div&gt;" style="whiteSpace=wrap;html=1;aspect=fixed;labelBackgroundColor=none;fillColor=#B2C9AB;strokeColor=#788AA3;fontColor=#46495D;" parent="1" vertex="1">
          <mxGeometry x="1005" y="510" width="150" height="150" as="geometry" />
        </mxCell>
        <mxCell id="AGG0iCRwYSTPVM0zgZUG-27" value="" style="shape=flexArrow;endArrow=classic;html=1;rounded=0;labelBackgroundColor=none;strokeColor=#788AA3;fontColor=default;" parent="1" source="AGG0iCRwYSTPVM0zgZUG-18" target="AGG0iCRwYSTPVM0zgZUG-26" edge="1">
          <mxGeometry width="50" height="50" relative="1" as="geometry">
            <mxPoint x="1150" y="380" as="sourcePoint" />
            <mxPoint x="1200" y="330" as="targetPoint" />
          </mxGeometry>
        </mxCell>
        <mxCell id="AGG0iCRwYSTPVM0zgZUG-28" value="" style="whiteSpace=wrap;html=1;aspect=fixed;labelBackgroundColor=none;fillColor=#B2C9AB;strokeColor=#788AA3;fontColor=#46495D;" parent="1" vertex="1">
          <mxGeometry x="1190" y="500" width="360" height="360" as="geometry" />
        </mxCell>
        <mxCell id="AGG0iCRwYSTPVM0zgZUG-29" value="select售卖机位置" style="ellipse;whiteSpace=wrap;html=1;labelBackgroundColor=none;fillColor=#B2C9AB;strokeColor=#788AA3;fontColor=#46495D;" parent="1" vertex="1">
          <mxGeometry x="1200" y="520" width="330" height="40" as="geometry" />
        </mxCell>
        <mxCell id="AGG0iCRwYSTPVM0zgZUG-30" value="饮品1&lt;div&gt;库存&lt;/div&gt;&lt;div&gt;价格&lt;/div&gt;&lt;div&gt;购买按钮&lt;/div&gt;" style="whiteSpace=wrap;html=1;aspect=fixed;labelBackgroundColor=none;fillColor=#B2C9AB;strokeColor=#788AA3;fontColor=#46495D;" parent="1" vertex="1">
          <mxGeometry x="1210" y="590" width="80" height="80" as="geometry" />
        </mxCell>
        <mxCell id="AGG0iCRwYSTPVM0zgZUG-31" value="饮品2" style="whiteSpace=wrap;html=1;aspect=fixed;labelBackgroundColor=none;fillColor=#B2C9AB;strokeColor=#788AA3;fontColor=#46495D;" parent="1" vertex="1">
          <mxGeometry x="1320" y="590" width="80" height="80" as="geometry" />
        </mxCell>
        <mxCell id="AGG0iCRwYSTPVM0zgZUG-32" value="饮品3" style="whiteSpace=wrap;html=1;aspect=fixed;labelBackgroundColor=none;fillColor=#B2C9AB;strokeColor=#788AA3;fontColor=#46495D;" parent="1" vertex="1">
          <mxGeometry x="1440" y="590" width="80" height="80" as="geometry" />
        </mxCell>
        <mxCell id="AGG0iCRwYSTPVM0zgZUG-33" value="饮品4" style="whiteSpace=wrap;html=1;aspect=fixed;labelBackgroundColor=none;fillColor=#B2C9AB;strokeColor=#788AA3;fontColor=#46495D;" parent="1" vertex="1">
          <mxGeometry x="1210" y="690" width="80" height="80" as="geometry" />
        </mxCell>
        <mxCell id="AGG0iCRwYSTPVM0zgZUG-34" value="饮品5" style="whiteSpace=wrap;html=1;aspect=fixed;labelBackgroundColor=none;fillColor=#B2C9AB;strokeColor=#788AA3;fontColor=#46495D;" parent="1" vertex="1">
          <mxGeometry x="1320" y="690" width="80" height="80" as="geometry" />
        </mxCell>
        <mxCell id="AGG0iCRwYSTPVM0zgZUG-35" value="饮品6" style="whiteSpace=wrap;html=1;aspect=fixed;labelBackgroundColor=none;fillColor=#B2C9AB;strokeColor=#788AA3;fontColor=#46495D;" parent="1" vertex="1">
          <mxGeometry x="1440" y="690" width="80" height="80" as="geometry" />
        </mxCell>
        <mxCell id="AGG0iCRwYSTPVM0zgZUG-36" value="......" style="text;html=1;align=center;verticalAlign=middle;whiteSpace=wrap;rounded=0;labelBackgroundColor=none;fontColor=#46495D;" parent="1" vertex="1">
          <mxGeometry x="1320" y="810" width="60" height="30" as="geometry" />
        </mxCell>
        <mxCell id="AGG0iCRwYSTPVM0zgZUG-37" value="康师傅冰红茶" style="swimlane;fontStyle=0;childLayout=stackLayout;horizontal=1;startSize=30;horizontalStack=0;resizeParent=1;resizeParentMax=0;resizeLast=0;collapsible=1;marginBottom=0;whiteSpace=wrap;html=1;labelBackgroundColor=none;fillColor=#B2C9AB;strokeColor=#788AA3;fontColor=#46495D;" parent="1" vertex="1">
          <mxGeometry x="920" y="730" width="220" height="240" as="geometry">
            <mxRectangle x="920" y="730" width="110" height="30" as="alternateBounds" />
          </mxGeometry>
        </mxCell>
        <mxCell id="AGG0iCRwYSTPVM0zgZUG-38" value="价格：SQL查询饮品表" style="text;strokeColor=none;fillColor=none;align=left;verticalAlign=middle;spacingLeft=4;spacingRight=4;overflow=hidden;points=[[0,0.5],[1,0.5]];portConstraint=eastwest;rotatable=0;whiteSpace=wrap;html=1;labelBackgroundColor=none;fontColor=#46495D;" parent="AGG0iCRwYSTPVM0zgZUG-37" vertex="1">
          <mxGeometry y="30" width="220" height="30" as="geometry" />
        </mxCell>
        <mxCell id="AGG0iCRwYSTPVM0zgZUG-39" value="保质期：同上" style="text;strokeColor=none;fillColor=none;align=left;verticalAlign=middle;spacingLeft=4;spacingRight=4;overflow=hidden;points=[[0,0.5],[1,0.5]];portConstraint=eastwest;rotatable=0;whiteSpace=wrap;html=1;labelBackgroundColor=none;fontColor=#46495D;" parent="AGG0iCRwYSTPVM0zgZUG-37" vertex="1">
          <mxGeometry y="60" width="220" height="30" as="geometry" />
        </mxCell>
        <mxCell id="AGG0iCRwYSTPVM0zgZUG-40" value="订单号：订单表最后一项订单号加1" style="text;strokeColor=none;fillColor=none;align=left;verticalAlign=middle;spacingLeft=4;spacingRight=4;overflow=hidden;points=[[0,0.5],[1,0.5]];portConstraint=eastwest;rotatable=0;whiteSpace=wrap;html=1;labelBackgroundColor=none;fontColor=#46495D;" parent="AGG0iCRwYSTPVM0zgZUG-37" vertex="1">
          <mxGeometry y="90" width="220" height="30" as="geometry" />
        </mxCell>
        <mxCell id="AGG0iCRwYSTPVM0zgZUG-46" value="下单时间：php生成" style="text;strokeColor=none;fillColor=none;align=left;verticalAlign=middle;spacingLeft=4;spacingRight=4;overflow=hidden;points=[[0,0.5],[1,0.5]];portConstraint=eastwest;rotatable=0;whiteSpace=wrap;html=1;labelBackgroundColor=none;fontColor=#46495D;" parent="AGG0iCRwYSTPVM0zgZUG-37" vertex="1">
          <mxGeometry y="120" width="220" height="30" as="geometry" />
        </mxCell>
        <mxCell id="AGG0iCRwYSTPVM0zgZUG-45" value="购买数量：select" style="text;strokeColor=none;fillColor=none;align=left;verticalAlign=middle;spacingLeft=4;spacingRight=4;overflow=hidden;points=[[0,0.5],[1,0.5]];portConstraint=eastwest;rotatable=0;whiteSpace=wrap;html=1;labelBackgroundColor=none;fontColor=#46495D;" parent="AGG0iCRwYSTPVM0zgZUG-37" vertex="1">
          <mxGeometry y="150" width="220" height="30" as="geometry" />
        </mxCell>
        <mxCell id="AGG0iCRwYSTPVM0zgZUG-44" value="请刷卡支付：XX元" style="text;strokeColor=none;fillColor=none;align=left;verticalAlign=middle;spacingLeft=4;spacingRight=4;overflow=hidden;points=[[0,0.5],[1,0.5]];portConstraint=eastwest;rotatable=0;whiteSpace=wrap;html=1;labelBackgroundColor=none;fontColor=#46495D;" parent="AGG0iCRwYSTPVM0zgZUG-37" vertex="1">
          <mxGeometry y="180" width="220" height="30" as="geometry" />
        </mxCell>
        <mxCell id="AGG0iCRwYSTPVM0zgZUG-49" value="确认按钮（以点击确认的行为代替刷卡成功）" style="text;strokeColor=none;fillColor=none;align=left;verticalAlign=middle;spacingLeft=4;spacingRight=4;overflow=hidden;points=[[0,0.5],[1,0.5]];portConstraint=eastwest;rotatable=0;whiteSpace=wrap;html=1;labelBackgroundColor=none;fontColor=#46495D;" parent="AGG0iCRwYSTPVM0zgZUG-37" vertex="1">
          <mxGeometry y="210" width="220" height="30" as="geometry" />
        </mxCell>
        <mxCell id="AGG0iCRwYSTPVM0zgZUG-47" value="" style="endArrow=classic;html=1;rounded=0;labelBackgroundColor=none;strokeColor=#788AA3;fontColor=default;" parent="1" source="AGG0iCRwYSTPVM0zgZUG-30" target="AGG0iCRwYSTPVM0zgZUG-37" edge="1">
          <mxGeometry width="50" height="50" relative="1" as="geometry">
            <mxPoint x="1410" y="660" as="sourcePoint" />
            <mxPoint x="1460" y="610" as="targetPoint" />
          </mxGeometry>
        </mxCell>
        <mxCell id="AGG0iCRwYSTPVM0zgZUG-48" value="点击购买按钮&lt;div&gt;弹出订单&lt;/div&gt;" style="text;html=1;align=center;verticalAlign=middle;resizable=0;points=[];autosize=1;strokeColor=none;fillColor=none;labelBackgroundColor=none;fontColor=#46495D;" parent="1" vertex="1">
          <mxGeometry x="1080" y="673" width="100" height="40" as="geometry" />
        </mxCell>
        <mxCell id="AGG0iCRwYSTPVM0zgZUG-50" value="" style="shape=flexArrow;endArrow=classic;html=1;rounded=0;entryX=0.25;entryY=0;entryDx=0;entryDy=0;labelBackgroundColor=none;strokeColor=#788AA3;fontColor=default;" parent="1" source="AGG0iCRwYSTPVM0zgZUG-19" target="AGG0iCRwYSTPVM0zgZUG-28" edge="1">
          <mxGeometry width="50" height="50" relative="1" as="geometry">
            <mxPoint x="1410" y="660" as="sourcePoint" />
            <mxPoint x="1460" y="610" as="targetPoint" />
          </mxGeometry>
        </mxCell>
        <mxCell id="AGG0iCRwYSTPVM0zgZUG-51" value="支付成功&lt;div&gt;感谢购买！！&lt;/div&gt;&lt;div&gt;您的余额：&lt;/div&gt;" style="whiteSpace=wrap;html=1;aspect=fixed;labelBackgroundColor=none;fillColor=#B2C9AB;strokeColor=#788AA3;fontColor=#46495D;" parent="1" vertex="1">
          <mxGeometry x="1250" y="920" width="250" height="250" as="geometry" />
        </mxCell>
        <mxCell id="AGG0iCRwYSTPVM0zgZUG-52" value="" style="endArrow=classic;html=1;rounded=0;entryX=0;entryY=0.75;entryDx=0;entryDy=0;labelBackgroundColor=none;strokeColor=#788AA3;fontColor=default;" parent="1" source="AGG0iCRwYSTPVM0zgZUG-49" target="AGG0iCRwYSTPVM0zgZUG-51" edge="1">
          <mxGeometry width="50" height="50" relative="1" as="geometry">
            <mxPoint x="1220" y="910" as="sourcePoint" />
            <mxPoint x="1270" y="860" as="targetPoint" />
            <Array as="points">
              <mxPoint x="1030" y="1108" />
            </Array>
          </mxGeometry>
        </mxCell>
        <mxCell id="AGG0iCRwYSTPVM0zgZUG-53" value="点击确认&lt;div&gt;弹出&lt;/div&gt;" style="text;html=1;align=center;verticalAlign=middle;resizable=0;points=[];autosize=1;strokeColor=none;fillColor=none;labelBackgroundColor=none;fontColor=#46495D;" parent="1" vertex="1">
          <mxGeometry x="960" y="1000" width="70" height="40" as="geometry" />
        </mxCell>
        <mxCell id="AGG0iCRwYSTPVM0zgZUG-54" value="SQL：用户信息表对余额属性进行&lt;div&gt;相应操作&lt;/div&gt;" style="text;html=1;align=center;verticalAlign=middle;resizable=0;points=[];autosize=1;strokeColor=none;fillColor=none;labelBackgroundColor=none;fontColor=#46495D;" parent="1" vertex="1">
          <mxGeometry x="1035" y="1073" width="200" height="40" as="geometry" />
        </mxCell>
        <mxCell id="AGG0iCRwYSTPVM0zgZUG-55" value="增，改，查" style="text;html=1;align=center;verticalAlign=middle;whiteSpace=wrap;rounded=0;fillColor=#fff2cc;strokeColor=#d6b656;labelBackgroundColor=none;" parent="1" vertex="1">
          <mxGeometry x="1100" y="1043" width="70" height="30" as="geometry" />
        </mxCell>
        <mxCell id="AGG0iCRwYSTPVM0zgZUG-56" value="系统概况" style="rounded=0;whiteSpace=wrap;html=1;labelBackgroundColor=none;fillColor=#B2C9AB;strokeColor=#788AA3;fontColor=#46495D;" parent="1" vertex="1">
          <mxGeometry x="1410" y="220" width="120" height="60" as="geometry" />
        </mxCell>
        <mxCell id="AGG0iCRwYSTPVM0zgZUG-57" value="call：管理员电话&lt;div&gt;email：管理员邮箱&lt;/div&gt;" style="rounded=0;whiteSpace=wrap;html=1;labelBackgroundColor=none;fillColor=#B2C9AB;strokeColor=#788AA3;fontColor=#46495D;" parent="1" vertex="1">
          <mxGeometry x="1630" y="220" width="120" height="60" as="geometry" />
        </mxCell>
        <mxCell id="AGG0iCRwYSTPVM0zgZUG-59" value="" style="endArrow=classic;html=1;rounded=0;labelBackgroundColor=none;strokeColor=#788AA3;fontColor=default;" parent="1" source="AGG0iCRwYSTPVM0zgZUG-5" target="AGG0iCRwYSTPVM0zgZUG-56" edge="1">
          <mxGeometry width="50" height="50" relative="1" as="geometry">
            <mxPoint x="1170" y="320" as="sourcePoint" />
            <mxPoint x="1220" y="270" as="targetPoint" />
          </mxGeometry>
        </mxCell>
        <mxCell id="AGG0iCRwYSTPVM0zgZUG-60" value="" style="endArrow=classic;html=1;rounded=0;labelBackgroundColor=none;strokeColor=#788AA3;fontColor=default;" parent="1" source="AGG0iCRwYSTPVM0zgZUG-6" target="AGG0iCRwYSTPVM0zgZUG-57" edge="1">
          <mxGeometry width="50" height="50" relative="1" as="geometry">
            <mxPoint x="1170" y="320" as="sourcePoint" />
            <mxPoint x="1220" y="270" as="targetPoint" />
          </mxGeometry>
        </mxCell>
        <mxCell id="AGG0iCRwYSTPVM0zgZUG-61" value="查" style="text;html=1;align=center;verticalAlign=middle;resizable=0;points=[];autosize=1;strokeColor=#d6b656;fillColor=#fff2cc;labelBackgroundColor=none;" parent="1" vertex="1">
          <mxGeometry x="1030" y="458" width="40" height="30" as="geometry" />
        </mxCell>
        <mxCell id="AGG0iCRwYSTPVM0zgZUG-62" value="用户名" style="text;html=1;align=center;verticalAlign=middle;resizable=0;points=[];autosize=1;strokeColor=none;fillColor=none;labelBackgroundColor=none;fontColor=#46495D;" parent="1" vertex="1">
          <mxGeometry x="1080" y="458" width="60" height="30" as="geometry" />
        </mxCell>
        <mxCell id="AGG0iCRwYSTPVM0zgZUG-63" value="查" style="text;html=1;align=center;verticalAlign=middle;resizable=0;points=[];autosize=1;strokeColor=#d6b656;fillColor=#fff2cc;labelBackgroundColor=none;" parent="1" vertex="1">
          <mxGeometry x="1220" y="455" width="40" height="30" as="geometry" />
        </mxCell>
        <mxCell id="AGG0iCRwYSTPVM0zgZUG-64" value="查询售卖机对应&lt;div&gt;饮品的信息&lt;/div&gt;" style="text;html=1;align=center;verticalAlign=middle;resizable=0;points=[];autosize=1;strokeColor=none;fillColor=none;labelBackgroundColor=none;fontColor=#46495D;" parent="1" vertex="1">
          <mxGeometry x="1280" y="450" width="110" height="40" as="geometry" />
        </mxCell>
        <mxCell id="AGG0iCRwYSTPVM0zgZUG-65" value="订单表增加一条记录" style="text;html=1;align=center;verticalAlign=middle;resizable=0;points=[];autosize=1;strokeColor=none;fillColor=none;labelBackgroundColor=none;fontColor=#46495D;" parent="1" vertex="1">
          <mxGeometry x="1055" y="1120" width="130" height="30" as="geometry" />
        </mxCell>
        <mxCell id="AGG0iCRwYSTPVM0zgZUG-66" value="账号：&lt;div&gt;姓名：&lt;/div&gt;&lt;div&gt;卡余额：&lt;/div&gt;&lt;div&gt;购买记录按钮&lt;/div&gt;" style="whiteSpace=wrap;html=1;aspect=fixed;labelBackgroundColor=none;fillColor=#B2C9AB;strokeColor=#788AA3;fontColor=#46495D;" parent="1" vertex="1">
          <mxGeometry x="1630" y="530" width="170" height="170" as="geometry" />
        </mxCell>
        <mxCell id="AGG0iCRwYSTPVM0zgZUG-67" value="" style="shape=flexArrow;endArrow=classic;html=1;rounded=0;exitX=0.908;exitY=1.006;exitDx=0;exitDy=0;exitPerimeter=0;labelBackgroundColor=none;strokeColor=#788AA3;fontColor=default;" parent="1" source="AGG0iCRwYSTPVM0zgZUG-20" target="AGG0iCRwYSTPVM0zgZUG-66" edge="1">
          <mxGeometry width="50" height="50" relative="1" as="geometry">
            <mxPoint x="1630" y="670" as="sourcePoint" />
            <mxPoint x="1680" y="620" as="targetPoint" />
          </mxGeometry>
        </mxCell>
        <mxCell id="AGG0iCRwYSTPVM0zgZUG-68" value="查" style="text;html=1;align=center;verticalAlign=middle;resizable=0;points=[];autosize=1;strokeColor=#d6b656;fillColor=#fff2cc;labelBackgroundColor=none;" parent="1" vertex="1">
          <mxGeometry x="1500" y="460" width="40" height="30" as="geometry" />
        </mxCell>
        <mxCell id="AGG0iCRwYSTPVM0zgZUG-69" value="查询用户表" style="text;html=1;align=center;verticalAlign=middle;resizable=0;points=[];autosize=1;strokeColor=none;fillColor=none;labelBackgroundColor=none;fontColor=#46495D;" parent="1" vertex="1">
          <mxGeometry x="1560" y="460" width="80" height="30" as="geometry" />
        </mxCell>
        <mxCell id="AGG0iCRwYSTPVM0zgZUG-70" value="购买记录" style="shape=table;startSize=30;container=1;collapsible=0;childLayout=tableLayout;labelBackgroundColor=none;fillColor=#B2C9AB;strokeColor=#788AA3;fontColor=#46495D;" parent="1" vertex="1">
          <mxGeometry x="1620" y="780" width="240" height="230" as="geometry" />
        </mxCell>
        <mxCell id="AGG0iCRwYSTPVM0zgZUG-71" value="" style="shape=tableRow;horizontal=0;startSize=0;swimlaneHead=0;swimlaneBody=0;strokeColor=#788AA3;top=0;left=0;bottom=0;right=0;collapsible=0;dropTarget=0;fillColor=none;points=[[0,0.5],[1,0.5]];portConstraint=eastwest;labelBackgroundColor=none;fontColor=#46495D;" parent="AGG0iCRwYSTPVM0zgZUG-70" vertex="1">
          <mxGeometry y="30" width="240" height="40" as="geometry" />
        </mxCell>
        <mxCell id="AGG0iCRwYSTPVM0zgZUG-72" value="No." style="shape=partialRectangle;html=1;whiteSpace=wrap;connectable=0;strokeColor=#788AA3;overflow=hidden;fillColor=none;top=0;left=0;bottom=0;right=0;pointerEvents=1;labelBackgroundColor=none;fontColor=#46495D;" parent="AGG0iCRwYSTPVM0zgZUG-71" vertex="1">
          <mxGeometry width="60" height="40" as="geometry">
            <mxRectangle width="60" height="40" as="alternateBounds" />
          </mxGeometry>
        </mxCell>
        <mxCell id="AGG0iCRwYSTPVM0zgZUG-73" value="饮品" style="shape=partialRectangle;html=1;whiteSpace=wrap;connectable=0;strokeColor=#788AA3;overflow=hidden;fillColor=none;top=0;left=0;bottom=0;right=0;pointerEvents=1;labelBackgroundColor=none;fontColor=#46495D;" parent="AGG0iCRwYSTPVM0zgZUG-71" vertex="1">
          <mxGeometry x="60" width="60" height="40" as="geometry">
            <mxRectangle width="60" height="40" as="alternateBounds" />
          </mxGeometry>
        </mxCell>
        <mxCell id="AGG0iCRwYSTPVM0zgZUG-74" value="价格" style="shape=partialRectangle;html=1;whiteSpace=wrap;connectable=0;strokeColor=#788AA3;overflow=hidden;fillColor=none;top=0;left=0;bottom=0;right=0;pointerEvents=1;labelBackgroundColor=none;fontColor=#46495D;" parent="AGG0iCRwYSTPVM0zgZUG-71" vertex="1">
          <mxGeometry x="120" width="60" height="40" as="geometry">
            <mxRectangle width="60" height="40" as="alternateBounds" />
          </mxGeometry>
        </mxCell>
        <mxCell id="AGG0iCRwYSTPVM0zgZUG-75" value="消费时间" style="shape=partialRectangle;html=1;whiteSpace=wrap;connectable=0;strokeColor=#788AA3;overflow=hidden;fillColor=none;top=0;left=0;bottom=0;right=0;pointerEvents=1;labelBackgroundColor=none;fontColor=#46495D;" parent="AGG0iCRwYSTPVM0zgZUG-71" vertex="1">
          <mxGeometry x="180" width="60" height="40" as="geometry">
            <mxRectangle width="60" height="40" as="alternateBounds" />
          </mxGeometry>
        </mxCell>
        <mxCell id="AGG0iCRwYSTPVM0zgZUG-76" value="" style="shape=tableRow;horizontal=0;startSize=0;swimlaneHead=0;swimlaneBody=0;strokeColor=#788AA3;top=0;left=0;bottom=0;right=0;collapsible=0;dropTarget=0;fillColor=none;points=[[0,0.5],[1,0.5]];portConstraint=eastwest;labelBackgroundColor=none;fontColor=#46495D;" parent="AGG0iCRwYSTPVM0zgZUG-70" vertex="1">
          <mxGeometry y="70" width="240" height="40" as="geometry" />
        </mxCell>
        <mxCell id="AGG0iCRwYSTPVM0zgZUG-77" value="1" style="shape=partialRectangle;html=1;whiteSpace=wrap;connectable=0;strokeColor=#788AA3;overflow=hidden;fillColor=none;top=0;left=0;bottom=0;right=0;pointerEvents=1;labelBackgroundColor=none;fontColor=#46495D;" parent="AGG0iCRwYSTPVM0zgZUG-76" vertex="1">
          <mxGeometry width="60" height="40" as="geometry">
            <mxRectangle width="60" height="40" as="alternateBounds" />
          </mxGeometry>
        </mxCell>
        <mxCell id="AGG0iCRwYSTPVM0zgZUG-78" value="" style="shape=partialRectangle;html=1;whiteSpace=wrap;connectable=0;strokeColor=#788AA3;overflow=hidden;fillColor=none;top=0;left=0;bottom=0;right=0;pointerEvents=1;labelBackgroundColor=none;fontColor=#46495D;" parent="AGG0iCRwYSTPVM0zgZUG-76" vertex="1">
          <mxGeometry x="60" width="60" height="40" as="geometry">
            <mxRectangle width="60" height="40" as="alternateBounds" />
          </mxGeometry>
        </mxCell>
        <mxCell id="AGG0iCRwYSTPVM0zgZUG-79" value="" style="shape=partialRectangle;html=1;whiteSpace=wrap;connectable=0;strokeColor=#788AA3;overflow=hidden;fillColor=none;top=0;left=0;bottom=0;right=0;pointerEvents=1;labelBackgroundColor=none;fontColor=#46495D;" parent="AGG0iCRwYSTPVM0zgZUG-76" vertex="1">
          <mxGeometry x="120" width="60" height="40" as="geometry">
            <mxRectangle width="60" height="40" as="alternateBounds" />
          </mxGeometry>
        </mxCell>
        <mxCell id="AGG0iCRwYSTPVM0zgZUG-80" value="" style="shape=partialRectangle;html=1;whiteSpace=wrap;connectable=0;strokeColor=#788AA3;overflow=hidden;fillColor=none;top=0;left=0;bottom=0;right=0;pointerEvents=1;labelBackgroundColor=none;fontColor=#46495D;" parent="AGG0iCRwYSTPVM0zgZUG-76" vertex="1">
          <mxGeometry x="180" width="60" height="40" as="geometry">
            <mxRectangle width="60" height="40" as="alternateBounds" />
          </mxGeometry>
        </mxCell>
        <mxCell id="AGG0iCRwYSTPVM0zgZUG-81" value="" style="shape=tableRow;horizontal=0;startSize=0;swimlaneHead=0;swimlaneBody=0;strokeColor=#788AA3;top=0;left=0;bottom=0;right=0;collapsible=0;dropTarget=0;fillColor=none;points=[[0,0.5],[1,0.5]];portConstraint=eastwest;labelBackgroundColor=none;fontColor=#46495D;" parent="AGG0iCRwYSTPVM0zgZUG-70" vertex="1">
          <mxGeometry y="110" width="240" height="40" as="geometry" />
        </mxCell>
        <mxCell id="AGG0iCRwYSTPVM0zgZUG-82" value="2" style="shape=partialRectangle;html=1;whiteSpace=wrap;connectable=0;strokeColor=#788AA3;overflow=hidden;fillColor=none;top=0;left=0;bottom=0;right=0;pointerEvents=1;labelBackgroundColor=none;fontColor=#46495D;" parent="AGG0iCRwYSTPVM0zgZUG-81" vertex="1">
          <mxGeometry width="60" height="40" as="geometry">
            <mxRectangle width="60" height="40" as="alternateBounds" />
          </mxGeometry>
        </mxCell>
        <mxCell id="AGG0iCRwYSTPVM0zgZUG-83" value="" style="shape=partialRectangle;html=1;whiteSpace=wrap;connectable=0;strokeColor=#788AA3;overflow=hidden;fillColor=none;top=0;left=0;bottom=0;right=0;pointerEvents=1;labelBackgroundColor=none;fontColor=#46495D;" parent="AGG0iCRwYSTPVM0zgZUG-81" vertex="1">
          <mxGeometry x="60" width="60" height="40" as="geometry">
            <mxRectangle width="60" height="40" as="alternateBounds" />
          </mxGeometry>
        </mxCell>
        <mxCell id="AGG0iCRwYSTPVM0zgZUG-84" value="" style="shape=partialRectangle;html=1;whiteSpace=wrap;connectable=0;strokeColor=#788AA3;overflow=hidden;fillColor=none;top=0;left=0;bottom=0;right=0;pointerEvents=1;labelBackgroundColor=none;fontColor=#46495D;" parent="AGG0iCRwYSTPVM0zgZUG-81" vertex="1">
          <mxGeometry x="120" width="60" height="40" as="geometry">
            <mxRectangle width="60" height="40" as="alternateBounds" />
          </mxGeometry>
        </mxCell>
        <mxCell id="AGG0iCRwYSTPVM0zgZUG-85" value="" style="shape=partialRectangle;html=1;whiteSpace=wrap;connectable=0;strokeColor=#788AA3;overflow=hidden;fillColor=none;top=0;left=0;bottom=0;right=0;pointerEvents=1;labelBackgroundColor=none;fontColor=#46495D;" parent="AGG0iCRwYSTPVM0zgZUG-81" vertex="1">
          <mxGeometry x="180" width="60" height="40" as="geometry">
            <mxRectangle width="60" height="40" as="alternateBounds" />
          </mxGeometry>
        </mxCell>
        <mxCell id="AGG0iCRwYSTPVM0zgZUG-86" value="" style="shape=tableRow;horizontal=0;startSize=0;swimlaneHead=0;swimlaneBody=0;strokeColor=#788AA3;top=0;left=0;bottom=0;right=0;collapsible=0;dropTarget=0;fillColor=none;points=[[0,0.5],[1,0.5]];portConstraint=eastwest;labelBackgroundColor=none;fontColor=#46495D;" parent="AGG0iCRwYSTPVM0zgZUG-70" vertex="1">
          <mxGeometry y="150" width="240" height="40" as="geometry" />
        </mxCell>
        <mxCell id="AGG0iCRwYSTPVM0zgZUG-87" value="3" style="shape=partialRectangle;html=1;whiteSpace=wrap;connectable=0;strokeColor=#788AA3;overflow=hidden;fillColor=none;top=0;left=0;bottom=0;right=0;pointerEvents=1;labelBackgroundColor=none;fontColor=#46495D;" parent="AGG0iCRwYSTPVM0zgZUG-86" vertex="1">
          <mxGeometry width="60" height="40" as="geometry">
            <mxRectangle width="60" height="40" as="alternateBounds" />
          </mxGeometry>
        </mxCell>
        <mxCell id="AGG0iCRwYSTPVM0zgZUG-88" value="" style="shape=partialRectangle;html=1;whiteSpace=wrap;connectable=0;strokeColor=#788AA3;overflow=hidden;fillColor=none;top=0;left=0;bottom=0;right=0;pointerEvents=1;labelBackgroundColor=none;fontColor=#46495D;" parent="AGG0iCRwYSTPVM0zgZUG-86" vertex="1">
          <mxGeometry x="60" width="60" height="40" as="geometry">
            <mxRectangle width="60" height="40" as="alternateBounds" />
          </mxGeometry>
        </mxCell>
        <mxCell id="AGG0iCRwYSTPVM0zgZUG-89" value="" style="shape=partialRectangle;html=1;whiteSpace=wrap;connectable=0;strokeColor=#788AA3;overflow=hidden;fillColor=none;top=0;left=0;bottom=0;right=0;pointerEvents=1;labelBackgroundColor=none;fontColor=#46495D;" parent="AGG0iCRwYSTPVM0zgZUG-86" vertex="1">
          <mxGeometry x="120" width="60" height="40" as="geometry">
            <mxRectangle width="60" height="40" as="alternateBounds" />
          </mxGeometry>
        </mxCell>
        <mxCell id="AGG0iCRwYSTPVM0zgZUG-90" value="" style="shape=partialRectangle;html=1;whiteSpace=wrap;connectable=0;strokeColor=#788AA3;overflow=hidden;fillColor=none;top=0;left=0;bottom=0;right=0;pointerEvents=1;labelBackgroundColor=none;fontColor=#46495D;" parent="AGG0iCRwYSTPVM0zgZUG-86" vertex="1">
          <mxGeometry x="180" width="60" height="40" as="geometry">
            <mxRectangle width="60" height="40" as="alternateBounds" />
          </mxGeometry>
        </mxCell>
        <mxCell id="AGG0iCRwYSTPVM0zgZUG-91" value="" style="shape=tableRow;horizontal=0;startSize=0;swimlaneHead=0;swimlaneBody=0;strokeColor=#788AA3;top=0;left=0;bottom=0;right=0;collapsible=0;dropTarget=0;fillColor=none;points=[[0,0.5],[1,0.5]];portConstraint=eastwest;labelBackgroundColor=none;fontColor=#46495D;" parent="AGG0iCRwYSTPVM0zgZUG-70" vertex="1">
          <mxGeometry y="190" width="240" height="40" as="geometry" />
        </mxCell>
        <mxCell id="AGG0iCRwYSTPVM0zgZUG-92" value="4" style="shape=partialRectangle;html=1;whiteSpace=wrap;connectable=0;strokeColor=#788AA3;overflow=hidden;fillColor=none;top=0;left=0;bottom=0;right=0;pointerEvents=1;labelBackgroundColor=none;fontColor=#46495D;" parent="AGG0iCRwYSTPVM0zgZUG-91" vertex="1">
          <mxGeometry width="60" height="40" as="geometry">
            <mxRectangle width="60" height="40" as="alternateBounds" />
          </mxGeometry>
        </mxCell>
        <mxCell id="AGG0iCRwYSTPVM0zgZUG-93" value="" style="shape=partialRectangle;html=1;whiteSpace=wrap;connectable=0;strokeColor=#788AA3;overflow=hidden;fillColor=none;top=0;left=0;bottom=0;right=0;pointerEvents=1;labelBackgroundColor=none;fontColor=#46495D;" parent="AGG0iCRwYSTPVM0zgZUG-91" vertex="1">
          <mxGeometry x="60" width="60" height="40" as="geometry">
            <mxRectangle width="60" height="40" as="alternateBounds" />
          </mxGeometry>
        </mxCell>
        <mxCell id="AGG0iCRwYSTPVM0zgZUG-94" value="" style="shape=partialRectangle;html=1;whiteSpace=wrap;connectable=0;strokeColor=#788AA3;overflow=hidden;fillColor=none;top=0;left=0;bottom=0;right=0;pointerEvents=1;labelBackgroundColor=none;fontColor=#46495D;" parent="AGG0iCRwYSTPVM0zgZUG-91" vertex="1">
          <mxGeometry x="120" width="60" height="40" as="geometry">
            <mxRectangle width="60" height="40" as="alternateBounds" />
          </mxGeometry>
        </mxCell>
        <mxCell id="AGG0iCRwYSTPVM0zgZUG-95" value="" style="shape=partialRectangle;html=1;whiteSpace=wrap;connectable=0;strokeColor=#788AA3;overflow=hidden;fillColor=none;top=0;left=0;bottom=0;right=0;pointerEvents=1;labelBackgroundColor=none;fontColor=#46495D;" parent="AGG0iCRwYSTPVM0zgZUG-91" vertex="1">
          <mxGeometry x="180" width="60" height="40" as="geometry">
            <mxRectangle width="60" height="40" as="alternateBounds" />
          </mxGeometry>
        </mxCell>
        <mxCell id="AGG0iCRwYSTPVM0zgZUG-96" value="" style="endArrow=classic;html=1;rounded=0;entryX=0.399;entryY=-0.004;entryDx=0;entryDy=0;entryPerimeter=0;labelBackgroundColor=none;strokeColor=#788AA3;fontColor=default;" parent="1" source="AGG0iCRwYSTPVM0zgZUG-66" target="AGG0iCRwYSTPVM0zgZUG-70" edge="1">
          <mxGeometry width="50" height="50" relative="1" as="geometry">
            <mxPoint x="1630" y="820" as="sourcePoint" />
            <mxPoint x="1680" y="770" as="targetPoint" />
          </mxGeometry>
        </mxCell>
        <mxCell id="AGG0iCRwYSTPVM0zgZUG-97" value="查" style="text;html=1;align=center;verticalAlign=middle;resizable=0;points=[];autosize=1;strokeColor=#d6b656;fillColor=#fff2cc;labelBackgroundColor=none;" parent="1" vertex="1">
          <mxGeometry x="1660" y="720" width="40" height="30" as="geometry" />
        </mxCell>
        <mxCell id="AGG0iCRwYSTPVM0zgZUG-98" value="SQL：订单表中&lt;div&gt;消费者=用户名的所有记录&lt;/div&gt;" style="text;html=1;align=center;verticalAlign=middle;resizable=0;points=[];autosize=1;strokeColor=none;fillColor=none;labelBackgroundColor=none;fontColor=#46495D;" parent="1" vertex="1">
          <mxGeometry x="1720" y="720" width="160" height="40" as="geometry" />
        </mxCell>
        <mxCell id="AGG0iCRwYSTPVM0zgZUG-99" value="查" style="text;html=1;align=center;verticalAlign=middle;resizable=0;points=[];autosize=1;strokeColor=#d6b656;fillColor=#fff2cc;labelBackgroundColor=none;" parent="1" vertex="1">
          <mxGeometry x="1250" y="200" width="40" height="30" as="geometry" />
        </mxCell>
        <mxCell id="AGG0iCRwYSTPVM0zgZUG-100" value="查" style="text;html=1;align=center;verticalAlign=middle;resizable=0;points=[];autosize=1;strokeColor=#d6b656;fillColor=#fff2cc;labelBackgroundColor=none;" parent="1" vertex="1">
          <mxGeometry x="680" y="190" width="40" height="30" as="geometry" />
        </mxCell>
        <mxCell id="AGG0iCRwYSTPVM0zgZUG-102" value="首页&lt;div&gt;welcome.php&lt;/div&gt;" style="rounded=1;whiteSpace=wrap;html=1;labelBackgroundColor=none;fillColor=#B2C9AB;strokeColor=#788AA3;fontColor=#46495D;" parent="1" vertex="1">
          <mxGeometry x="-30" y="395" width="120" height="60" as="geometry" />
        </mxCell>
        <mxCell id="AGG0iCRwYSTPVM0zgZUG-103" value="Welcome&lt;div&gt;Admin Lin&lt;/div&gt;" style="whiteSpace=wrap;html=1;aspect=fixed;labelBackgroundColor=none;fillColor=#B2C9AB;strokeColor=#788AA3;fontColor=#46495D;" parent="1" vertex="1">
          <mxGeometry x="-45" y="530" width="150" height="150" as="geometry" />
        </mxCell>
        <mxCell id="AGG0iCRwYSTPVM0zgZUG-104" value="" style="shape=flexArrow;endArrow=classic;html=1;rounded=0;labelBackgroundColor=none;strokeColor=#788AA3;fontColor=default;" parent="1" source="AGG0iCRwYSTPVM0zgZUG-102" target="AGG0iCRwYSTPVM0zgZUG-103" edge="1">
          <mxGeometry width="50" height="50" relative="1" as="geometry">
            <mxPoint x="215" y="380" as="sourcePoint" />
            <mxPoint x="265" y="330" as="targetPoint" />
          </mxGeometry>
        </mxCell>
        <mxCell id="AGG0iCRwYSTPVM0zgZUG-105" value="查" style="text;html=1;align=center;verticalAlign=middle;resizable=0;points=[];autosize=1;strokeColor=#d6b656;fillColor=#fff2cc;labelBackgroundColor=none;" parent="1" vertex="1">
          <mxGeometry x="-20" y="470" width="40" height="30" as="geometry" />
        </mxCell>
        <mxCell id="AGG0iCRwYSTPVM0zgZUG-106" value="用户名" style="text;html=1;align=center;verticalAlign=middle;resizable=0;points=[];autosize=1;strokeColor=none;fillColor=none;labelBackgroundColor=none;fontColor=#46495D;" parent="1" vertex="1">
          <mxGeometry x="45" y="470" width="60" height="30" as="geometry" />
        </mxCell>
        <mxCell id="AGG0iCRwYSTPVM0zgZUG-107" value="" style="endArrow=classic;html=1;rounded=0;labelBackgroundColor=none;strokeColor=#788AA3;fontColor=default;" parent="1" source="AGG0iCRwYSTPVM0zgZUG-13" target="AGG0iCRwYSTPVM0zgZUG-102" edge="1">
          <mxGeometry width="50" height="50" relative="1" as="geometry">
            <mxPoint x="460" y="450" as="sourcePoint" />
            <mxPoint x="510" y="400" as="targetPoint" />
          </mxGeometry>
        </mxCell>
        <mxCell id="AGG0iCRwYSTPVM0zgZUG-108" value="管理售卖机&lt;div&gt;machinemessage.php&lt;/div&gt;" style="rounded=1;whiteSpace=wrap;html=1;labelBackgroundColor=none;fillColor=#B2C9AB;strokeColor=#788AA3;fontColor=#46495D;" parent="1" vertex="1">
          <mxGeometry x="300" y="390" width="120" height="60" as="geometry" />
        </mxCell>
        <mxCell id="AGG0iCRwYSTPVM0zgZUG-109" value="" style="endArrow=classic;html=1;rounded=0;entryX=0.75;entryY=0;entryDx=0;entryDy=0;labelBackgroundColor=none;strokeColor=#788AA3;fontColor=default;" parent="1" source="AGG0iCRwYSTPVM0zgZUG-13" target="AGG0iCRwYSTPVM0zgZUG-108" edge="1">
          <mxGeometry width="50" height="50" relative="1" as="geometry">
            <mxPoint x="700" y="450" as="sourcePoint" />
            <mxPoint x="750" y="400" as="targetPoint" />
          </mxGeometry>
        </mxCell>
        <mxCell id="AGG0iCRwYSTPVM0zgZUG-110" value="销售统计&lt;div&gt;salelog.php&lt;/div&gt;" style="rounded=1;whiteSpace=wrap;html=1;labelBackgroundColor=none;fillColor=#B2C9AB;strokeColor=#788AA3;fontColor=#46495D;" parent="1" vertex="1">
          <mxGeometry x="650" y="398" width="120" height="60" as="geometry" />
        </mxCell>
        <mxCell id="xD9_Ra1yIZf2eJDC6vgy-1" value="退出&lt;div&gt;logout.php&lt;/div&gt;" style="rounded=1;whiteSpace=wrap;html=1;labelBackgroundColor=none;fillColor=#B2C9AB;strokeColor=#788AA3;fontColor=#46495D;" parent="1" vertex="1">
          <mxGeometry x="850" y="395" width="120" height="60" as="geometry" />
        </mxCell>
        <mxCell id="OFYoawpVnqigwgk_CRGG-1" value="" style="whiteSpace=wrap;html=1;aspect=fixed;labelBackgroundColor=none;fillColor=#B2C9AB;strokeColor=#788AA3;fontColor=#46495D;" parent="1" vertex="1">
          <mxGeometry x="170" y="530" width="330" height="330" as="geometry" />
        </mxCell>
        <mxCell id="OFYoawpVnqigwgk_CRGG-3" value="1001号&amp;nbsp; 总库存：240&amp;nbsp; &amp;nbsp; &amp;nbsp; &amp;nbsp; &amp;nbsp;" style="rounded=0;whiteSpace=wrap;html=1;labelBackgroundColor=none;fillColor=#B2C9AB;strokeColor=#788AA3;fontColor=#46495D;" parent="1" vertex="1">
          <mxGeometry x="190" y="555" width="290" height="45" as="geometry" />
        </mxCell>
        <mxCell id="OFYoawpVnqigwgk_CRGG-4" value="1002号&amp;nbsp; 总库存：310&amp;nbsp; &amp;nbsp; &amp;nbsp;" style="rounded=0;whiteSpace=wrap;html=1;labelBackgroundColor=none;fillColor=#B2C9AB;strokeColor=#788AA3;fontColor=#46495D;" parent="1" vertex="1">
          <mxGeometry x="190" y="625" width="290" height="45" as="geometry" />
        </mxCell>
        <mxCell id="OFYoawpVnqigwgk_CRGG-5" value="1003号&amp;nbsp; 总库存：300&amp;nbsp; &amp;nbsp; &amp;nbsp;" style="rounded=0;whiteSpace=wrap;html=1;labelBackgroundColor=none;fillColor=#B2C9AB;strokeColor=#788AA3;fontColor=#46495D;" parent="1" vertex="1">
          <mxGeometry x="190" y="690" width="290" height="45" as="geometry" />
        </mxCell>
        <mxCell id="OFYoawpVnqigwgk_CRGG-7" value="…………" style="text;strokeColor=none;fillColor=none;align=left;verticalAlign=middle;spacingLeft=4;spacingRight=4;overflow=hidden;points=[[0,0.5],[1,0.5]];portConstraint=eastwest;rotatable=0;whiteSpace=wrap;html=1;labelBackgroundColor=none;fontColor=#46495D;" parent="1" vertex="1">
          <mxGeometry x="290" y="750" width="80" height="30" as="geometry" />
        </mxCell>
        <mxCell id="OFYoawpVnqigwgk_CRGG-8" value="详情" style="rounded=1;whiteSpace=wrap;html=1;labelBackgroundColor=none;fillColor=#B2C9AB;strokeColor=#788AA3;fontColor=#46495D;" parent="1" vertex="1">
          <mxGeometry x="420" y="561.25" width="50" height="32.5" as="geometry" />
        </mxCell>
        <mxCell id="OFYoawpVnqigwgk_CRGG-9" value="详情" style="rounded=1;whiteSpace=wrap;html=1;labelBackgroundColor=none;fillColor=#B2C9AB;strokeColor=#788AA3;fontColor=#46495D;" parent="1" vertex="1">
          <mxGeometry x="420" y="631.25" width="50" height="32.5" as="geometry" />
        </mxCell>
        <mxCell id="OFYoawpVnqigwgk_CRGG-10" value="详情" style="rounded=1;whiteSpace=wrap;html=1;labelBackgroundColor=none;fillColor=#B2C9AB;strokeColor=#788AA3;fontColor=#46495D;" parent="1" vertex="1">
          <mxGeometry x="420" y="696.25" width="50" height="32.5" as="geometry" />
        </mxCell>
        <mxCell id="OFYoawpVnqigwgk_CRGG-12" value="" style="whiteSpace=wrap;html=1;aspect=fixed;labelBackgroundColor=none;fillColor=#B2C9AB;strokeColor=#788AA3;fontColor=#46495D;" parent="1" vertex="1">
          <mxGeometry x="170" y="890" width="330" height="330" as="geometry" />
        </mxCell>
        <mxCell id="OFYoawpVnqigwgk_CRGG-14" value="饮品1&lt;div&gt;库存：&lt;/div&gt;" style="whiteSpace=wrap;html=1;aspect=fixed;labelBackgroundColor=none;fillColor=#B2C9AB;strokeColor=#788AA3;fontColor=#46495D;" parent="1" vertex="1">
          <mxGeometry x="190" y="920" width="80" height="80" as="geometry" />
        </mxCell>
        <mxCell id="OFYoawpVnqigwgk_CRGG-15" value="补货" style="rounded=1;whiteSpace=wrap;html=1;labelBackgroundColor=none;fillColor=#B2C9AB;strokeColor=#788AA3;fontColor=#46495D;" parent="1" vertex="1">
          <mxGeometry x="212.5" y="977.5" width="35" height="22.5" as="geometry" />
        </mxCell>
        <mxCell id="OFYoawpVnqigwgk_CRGG-16" value="饮品2&lt;div&gt;库存：&lt;/div&gt;" style="whiteSpace=wrap;html=1;aspect=fixed;labelBackgroundColor=none;fillColor=#B2C9AB;strokeColor=#788AA3;fontColor=#46495D;" parent="1" vertex="1">
          <mxGeometry x="280" y="920" width="80" height="80" as="geometry" />
        </mxCell>
        <mxCell id="OFYoawpVnqigwgk_CRGG-17" value="补货" style="rounded=1;whiteSpace=wrap;html=1;labelBackgroundColor=none;fillColor=#B2C9AB;strokeColor=#788AA3;fontColor=#46495D;" parent="1" vertex="1">
          <mxGeometry x="300" y="977.5" width="35" height="22.5" as="geometry" />
        </mxCell>
        <mxCell id="OFYoawpVnqigwgk_CRGG-18" value="饮品2&lt;div&gt;库存：&lt;/div&gt;" style="whiteSpace=wrap;html=1;aspect=fixed;labelBackgroundColor=none;fillColor=#B2C9AB;strokeColor=#788AA3;fontColor=#46495D;" parent="1" vertex="1">
          <mxGeometry x="380" y="920" width="80" height="80" as="geometry" />
        </mxCell>
        <mxCell id="OFYoawpVnqigwgk_CRGG-19" value="补货" style="rounded=1;whiteSpace=wrap;html=1;labelBackgroundColor=none;fillColor=#B2C9AB;strokeColor=#788AA3;fontColor=#46495D;" parent="1" vertex="1">
          <mxGeometry x="402.5" y="977.5" width="35" height="22.5" as="geometry" />
        </mxCell>
        <mxCell id="OFYoawpVnqigwgk_CRGG-21" value="饮品1&lt;div&gt;库存：&lt;/div&gt;" style="whiteSpace=wrap;html=1;aspect=fixed;labelBackgroundColor=none;fillColor=#B2C9AB;strokeColor=#788AA3;fontColor=#46495D;" parent="1" vertex="1">
          <mxGeometry x="190" y="1018" width="80" height="80" as="geometry" />
        </mxCell>
        <mxCell id="OFYoawpVnqigwgk_CRGG-22" value="补货" style="rounded=1;whiteSpace=wrap;html=1;labelBackgroundColor=none;fillColor=#B2C9AB;strokeColor=#788AA3;fontColor=#46495D;" parent="1" vertex="1">
          <mxGeometry x="212.5" y="1075.5" width="35" height="22.5" as="geometry" />
        </mxCell>
        <mxCell id="OFYoawpVnqigwgk_CRGG-23" value="饮品2&lt;div&gt;库存：&lt;/div&gt;" style="whiteSpace=wrap;html=1;aspect=fixed;labelBackgroundColor=none;fillColor=#B2C9AB;strokeColor=#788AA3;fontColor=#46495D;" parent="1" vertex="1">
          <mxGeometry x="280" y="1018" width="80" height="80" as="geometry" />
        </mxCell>
        <mxCell id="OFYoawpVnqigwgk_CRGG-24" value="饮品2&lt;div&gt;库存：&lt;/div&gt;" style="whiteSpace=wrap;html=1;aspect=fixed;labelBackgroundColor=none;fillColor=#B2C9AB;strokeColor=#788AA3;fontColor=#46495D;" parent="1" vertex="1">
          <mxGeometry x="380" y="1018" width="80" height="80" as="geometry" />
        </mxCell>
        <mxCell id="OFYoawpVnqigwgk_CRGG-25" value="饮品2&lt;div&gt;库存：&lt;/div&gt;" style="whiteSpace=wrap;html=1;aspect=fixed;labelBackgroundColor=none;fillColor=#B2C9AB;strokeColor=#788AA3;fontColor=#46495D;" parent="1" vertex="1">
          <mxGeometry x="190" y="1120" width="80" height="80" as="geometry" />
        </mxCell>
        <mxCell id="OFYoawpVnqigwgk_CRGG-26" value="饮品2&lt;div&gt;库存：&lt;/div&gt;" style="whiteSpace=wrap;html=1;aspect=fixed;labelBackgroundColor=none;fillColor=#B2C9AB;strokeColor=#788AA3;fontColor=#46495D;" parent="1" vertex="1">
          <mxGeometry x="277.5" y="1120" width="80" height="80" as="geometry" />
        </mxCell>
        <mxCell id="OFYoawpVnqigwgk_CRGG-28" value="补货" style="rounded=1;whiteSpace=wrap;html=1;labelBackgroundColor=none;fillColor=#B2C9AB;strokeColor=#788AA3;fontColor=#46495D;" parent="1" vertex="1">
          <mxGeometry x="300" y="1075.5" width="35" height="22.5" as="geometry" />
        </mxCell>
        <mxCell id="OFYoawpVnqigwgk_CRGG-29" value="补货" style="rounded=1;whiteSpace=wrap;html=1;labelBackgroundColor=none;fillColor=#B2C9AB;strokeColor=#788AA3;fontColor=#46495D;" parent="1" vertex="1">
          <mxGeometry x="402.5" y="1073" width="35" height="22.5" as="geometry" />
        </mxCell>
        <mxCell id="OFYoawpVnqigwgk_CRGG-30" value="补货" style="rounded=1;whiteSpace=wrap;html=1;labelBackgroundColor=none;fillColor=#B2C9AB;strokeColor=#788AA3;fontColor=#46495D;" parent="1" vertex="1">
          <mxGeometry x="212.5" y="1177.5" width="35" height="22.5" as="geometry" />
        </mxCell>
        <mxCell id="OFYoawpVnqigwgk_CRGG-31" value="补货" style="rounded=1;whiteSpace=wrap;html=1;labelBackgroundColor=none;fillColor=#B2C9AB;strokeColor=#788AA3;fontColor=#46495D;" parent="1" vertex="1">
          <mxGeometry x="300" y="1177.5" width="35" height="22.5" as="geometry" />
        </mxCell>
        <mxCell id="OFYoawpVnqigwgk_CRGG-33" value="" style="endArrow=classic;html=1;rounded=0;entryX=1.011;entryY=0.217;entryDx=0;entryDy=0;entryPerimeter=0;labelBackgroundColor=none;strokeColor=#788AA3;fontColor=default;" parent="1" source="OFYoawpVnqigwgk_CRGG-8" target="OFYoawpVnqigwgk_CRGG-12" edge="1">
          <mxGeometry width="50" height="50" relative="1" as="geometry">
            <mxPoint x="670" y="440" as="sourcePoint" />
            <mxPoint x="540" y="1080" as="targetPoint" />
            <Array as="points">
              <mxPoint x="540" y="578" />
              <mxPoint x="540" y="962" />
            </Array>
          </mxGeometry>
        </mxCell>
        <mxCell id="OFYoawpVnqigwgk_CRGG-35" value="" style="shape=flexArrow;endArrow=classic;html=1;rounded=0;entryX=0.575;entryY=0.007;entryDx=0;entryDy=0;entryPerimeter=0;labelBackgroundColor=none;strokeColor=#788AA3;fontColor=default;" parent="1" source="AGG0iCRwYSTPVM0zgZUG-108" target="OFYoawpVnqigwgk_CRGG-1" edge="1">
          <mxGeometry width="50" height="50" relative="1" as="geometry">
            <mxPoint x="670" y="840" as="sourcePoint" />
            <mxPoint x="720" y="790" as="targetPoint" />
          </mxGeometry>
        </mxCell>
        <mxCell id="OFYoawpVnqigwgk_CRGG-36" value="" style="endArrow=classic;html=1;rounded=0;labelBackgroundColor=none;strokeColor=#788AA3;fontColor=default;" parent="1" source="AGG0iCRwYSTPVM0zgZUG-13" target="AGG0iCRwYSTPVM0zgZUG-110" edge="1">
          <mxGeometry width="50" height="50" relative="1" as="geometry">
            <mxPoint x="550" y="329" as="sourcePoint" />
            <mxPoint x="400" y="400" as="targetPoint" />
          </mxGeometry>
        </mxCell>
        <mxCell id="OFYoawpVnqigwgk_CRGG-38" value="" style="whiteSpace=wrap;html=1;aspect=fixed;labelBackgroundColor=none;fillColor=#B2C9AB;strokeColor=#788AA3;fontColor=#46495D;" parent="1" vertex="1">
          <mxGeometry x="570" y="500" width="340" height="340" as="geometry" />
        </mxCell>
        <mxCell id="OFYoawpVnqigwgk_CRGG-39" value="" style="rounded=0;whiteSpace=wrap;html=1;labelBackgroundColor=none;fillColor=#B2C9AB;strokeColor=#788AA3;fontColor=#46495D;" parent="1" vertex="1">
          <mxGeometry x="590" y="520" width="290" height="110" as="geometry" />
        </mxCell>
        <mxCell id="OFYoawpVnqigwgk_CRGG-40" value="" style="rounded=0;whiteSpace=wrap;html=1;labelBackgroundColor=none;fillColor=#B2C9AB;strokeColor=#788AA3;fontColor=#46495D;" parent="1" vertex="1">
          <mxGeometry x="590" y="680" width="290" height="110" as="geometry" />
        </mxCell>
        <mxCell id="OFYoawpVnqigwgk_CRGG-41" value="" style="rounded=0;whiteSpace=wrap;html=1;labelBackgroundColor=none;fillColor=#B2C9AB;strokeColor=#788AA3;fontColor=#46495D;" parent="1" vertex="1">
          <mxGeometry x="600" y="530" width="20" height="100" as="geometry" />
        </mxCell>
        <mxCell id="OFYoawpVnqigwgk_CRGG-42" value="" style="rounded=0;whiteSpace=wrap;html=1;labelBackgroundColor=none;fillColor=#B2C9AB;strokeColor=#788AA3;fontColor=#46495D;" parent="1" vertex="1">
          <mxGeometry x="630" y="560" width="20" height="70" as="geometry" />
        </mxCell>
        <mxCell id="OFYoawpVnqigwgk_CRGG-43" value="" style="rounded=0;whiteSpace=wrap;html=1;labelBackgroundColor=none;fillColor=#B2C9AB;strokeColor=#788AA3;fontColor=#46495D;" parent="1" vertex="1">
          <mxGeometry x="660" y="550" width="20" height="80" as="geometry" />
        </mxCell>
        <mxCell id="OFYoawpVnqigwgk_CRGG-44" value="" style="rounded=0;whiteSpace=wrap;html=1;labelBackgroundColor=none;fillColor=#B2C9AB;strokeColor=#788AA3;fontColor=#46495D;" parent="1" vertex="1">
          <mxGeometry x="690" y="540" width="20" height="90" as="geometry" />
        </mxCell>
        <mxCell id="OFYoawpVnqigwgk_CRGG-45" value="条形图&lt;div&gt;每台售卖机销量&lt;/div&gt;" style="text;strokeColor=none;fillColor=none;align=left;verticalAlign=middle;spacingLeft=4;spacingRight=4;overflow=hidden;points=[[0,0.5],[1,0.5]];portConstraint=eastwest;rotatable=0;whiteSpace=wrap;html=1;labelBackgroundColor=none;fontColor=#46495D;" parent="1" vertex="1">
          <mxGeometry x="690" y="794" width="100" height="37" as="geometry" />
        </mxCell>
        <mxCell id="OFYoawpVnqigwgk_CRGG-46" value="条形图&lt;div&gt;每种饮料销量&lt;/div&gt;" style="text;strokeColor=none;fillColor=none;align=left;verticalAlign=middle;spacingLeft=4;spacingRight=4;overflow=hidden;points=[[0,0.5],[1,0.5]];portConstraint=eastwest;rotatable=0;whiteSpace=wrap;html=1;labelBackgroundColor=none;fontColor=#46495D;" parent="1" vertex="1">
          <mxGeometry x="680" y="636" width="100" height="37" as="geometry" />
        </mxCell>
        <mxCell id="OFYoawpVnqigwgk_CRGG-47" value="" style="shape=flexArrow;endArrow=classic;html=1;rounded=0;strokeColor=#788AA3;fontColor=#46495D;fillColor=#B2C9AB;entryX=0.412;entryY=0;entryDx=0;entryDy=0;entryPerimeter=0;" parent="1" source="AGG0iCRwYSTPVM0zgZUG-110" target="OFYoawpVnqigwgk_CRGG-38" edge="1">
          <mxGeometry width="50" height="50" relative="1" as="geometry">
            <mxPoint x="750" y="430" as="sourcePoint" />
            <mxPoint x="800" y="380" as="targetPoint" />
          </mxGeometry>
        </mxCell>
        <mxCell id="J91kME43Jp7hy4o4YHil-2" value="" style="endArrow=classic;startArrow=classic;html=1;rounded=0;" edge="1" parent="1" source="AGG0iCRwYSTPVM0zgZUG-15" target="AGG0iCRwYSTPVM0zgZUG-21">
          <mxGeometry width="50" height="50" relative="1" as="geometry">
            <mxPoint x="1480" y="520" as="sourcePoint" />
            <mxPoint x="1530" y="470" as="targetPoint" />
          </mxGeometry>
        </mxCell>
        <mxCell id="J91kME43Jp7hy4o4YHil-3" value="" style="endArrow=classic;html=1;rounded=0;" edge="1" parent="1" source="AGG0iCRwYSTPVM0zgZUG-13" target="xD9_Ra1yIZf2eJDC6vgy-1">
          <mxGeometry width="50" height="50" relative="1" as="geometry">
            <mxPoint x="610" y="520" as="sourcePoint" />
            <mxPoint x="660" y="470" as="targetPoint" />
          </mxGeometry>
        </mxCell>
        <mxCell id="J91kME43Jp7hy4o4YHil-4" value="+(添加新的机子)" style="rounded=0;whiteSpace=wrap;html=1;labelBackgroundColor=none;fillColor=#B2C9AB;strokeColor=#788AA3;fontColor=#46495D;" vertex="1" parent="1">
          <mxGeometry x="190" y="790" width="290" height="45" as="geometry" />
        </mxCell>
        <mxCell id="J91kME43Jp7hy4o4YHil-5" value="+" style="whiteSpace=wrap;html=1;aspect=fixed;labelBackgroundColor=none;fillColor=#B2C9AB;strokeColor=#788AA3;fontColor=#46495D;" vertex="1" parent="1">
          <mxGeometry x="380" y="1120" width="80" height="80" as="geometry" />
        </mxCell>
        <mxCell id="J91kME43Jp7hy4o4YHil-6" value="" style="rounded=0;whiteSpace=wrap;html=1;labelBackgroundColor=none;fillColor=#B2C9AB;strokeColor=#788AA3;fontColor=#46495D;" vertex="1" parent="1">
          <mxGeometry x="725" y="530" width="20" height="100" as="geometry" />
        </mxCell>
        <mxCell id="J91kME43Jp7hy4o4YHil-7" value="" style="rounded=0;whiteSpace=wrap;html=1;labelBackgroundColor=none;fillColor=#B2C9AB;strokeColor=#788AA3;fontColor=#46495D;" vertex="1" parent="1">
          <mxGeometry x="760" y="550" width="20" height="80" as="geometry" />
        </mxCell>
        <mxCell id="J91kME43Jp7hy4o4YHil-8" value="" style="rounded=0;whiteSpace=wrap;html=1;labelBackgroundColor=none;fillColor=#B2C9AB;strokeColor=#788AA3;fontColor=#46495D;" vertex="1" parent="1">
          <mxGeometry x="820" y="560" width="20" height="70" as="geometry" />
        </mxCell>
        <mxCell id="J91kME43Jp7hy4o4YHil-9" value="" style="rounded=0;whiteSpace=wrap;html=1;labelBackgroundColor=none;fillColor=#B2C9AB;strokeColor=#788AA3;fontColor=#46495D;" vertex="1" parent="1">
          <mxGeometry x="790" y="540" width="20" height="90" as="geometry" />
        </mxCell>
        <mxCell id="J91kME43Jp7hy4o4YHil-10" value="" style="rounded=0;whiteSpace=wrap;html=1;labelBackgroundColor=none;fillColor=#B2C9AB;strokeColor=#788AA3;fontColor=#46495D;" vertex="1" parent="1">
          <mxGeometry x="610" y="690" width="40" height="100" as="geometry" />
        </mxCell>
        <mxCell id="J91kME43Jp7hy4o4YHil-11" value="" style="rounded=0;whiteSpace=wrap;html=1;labelBackgroundColor=none;fillColor=#B2C9AB;strokeColor=#788AA3;fontColor=#46495D;" vertex="1" parent="1">
          <mxGeometry x="690" y="710" width="50" height="80" as="geometry" />
        </mxCell>
        <mxCell id="J91kME43Jp7hy4o4YHil-12" value="" style="rounded=0;whiteSpace=wrap;html=1;labelBackgroundColor=none;fillColor=#B2C9AB;strokeColor=#788AA3;fontColor=#46495D;" vertex="1" parent="1">
          <mxGeometry x="780" y="690" width="50" height="100" as="geometry" />
        </mxCell>
        <mxCell id="J91kME43Jp7hy4o4YHil-13" value="增删改查" style="text;html=1;align=center;verticalAlign=middle;resizable=0;points=[];autosize=1;strokeColor=#d6b656;fillColor=#fff2cc;labelBackgroundColor=none;" vertex="1" parent="1">
          <mxGeometry x="365" y="470" width="70" height="30" as="geometry" />
        </mxCell>
        <mxCell id="J91kME43Jp7hy4o4YHil-14" value="查" style="text;html=1;align=center;verticalAlign=middle;resizable=0;points=[];autosize=1;strokeColor=#d6b656;fillColor=#fff2cc;labelBackgroundColor=none;" vertex="1" parent="1">
          <mxGeometry x="730" y="460" width="40" height="30" as="geometry" />
        </mxCell>
      </root>
    </mxGraphModel>
  </diagram>
</mxfile>
